<?xml version="1.0" encoding="utf-8"?>
<!-- Generator: Adobe Illustrator 24.2.3, SVG Export Plug-In . SVG Version: 6.00 Build 0)  -->
<svg version="1.1" id="Layer_1" xmlns="http://www.w3.org/2000/svg" xmlns:xlink="http://www.w3.org/1999/xlink" x="0px" y="0px"
	 viewBox="0 0 420.69 113.39" style="enable-background:new 0 0 420.69 113.39;" xml:space="preserve">
<style type="text/css">
	.st0{fill:#FFFFFF;}
	.st1{fill:#231F20;}
	.st2{fill:#0683D7;}
	.st3{fill:#8D3FD0;}
	.st4{fill:#939598;}
	.st5{fill:none;stroke:#231F20;stroke-miterlimit:10;}
	.st6{fill:none;stroke:#8D3FD0;stroke-miterlimit:10;}
	.st7{fill:none;stroke:#231F20;stroke-width:0.9496;stroke-miterlimit:10;}
	.st8{fill:none;stroke:#231F20;stroke-width:0.9481;stroke-miterlimit:10;}
	.st9{fill:none;stroke:#8D3FD0;stroke-width:1.031;stroke-miterlimit:10;}
	.st10{fill:none;stroke:#FF0049;stroke-miterlimit:10;}
	.st11{fill:none;stroke:#FF0049;stroke-width:1.0711;stroke-miterlimit:10;}
	.st12{fill:none;stroke:#FF0049;stroke-width:1.1245;stroke-miterlimit:10;}
</style>
<g id="XMLID_2031_">
	<path id="XMLID_2039_" class="st1" d="M145.59,46.74h-6.91c-2.09,0-3.78,1.69-3.78,3.78v39.09c0,4.35-1.62,6.53-4.85,6.53h-1
		c-2.09,0-3.78,1.69-3.78,3.78v6.24h8.98c4.13,0,7.69-1.51,10.66-4.52c2.97-2.97,4.46-6.55,4.46-10.72v-40.4
		C149.37,48.43,147.68,46.74,145.59,46.74z"/>
	<path id="XMLID_2038_" class="st1" d="M34.92,22.22h-6.91c-2.09,0-3.78,1.69-3.78,3.78v49.27c0,2.41-0.54,4.09-1.62,5.04
		c-1.12,0.9-2.89,1.36-5.3,1.36H3.78C1.69,81.66,0,83.35,0,85.44v6.24h23.71c4.13-0.09,7.67-1.62,10.6-4.59
		c2.93-3.01,4.39-6.57,4.39-10.66V26C38.7,23.91,37.01,22.22,34.92,22.22z"/>
	<path id="XMLID_2037_" class="st1" d="M104.16,22.22c-1,0-1.96,0.4-2.67,1.11l-32.62,32.6c-0.71,0.71-1.11,1.67-1.11,2.67v8.64h33
		c3.45,0,5.17,2.15,5.17,6.46V75c0,4.44-1.72,6.65-5.17,6.65h-32.6h-1.29c-2.11,0-3.73-0.45-4.84-1.36
		c-1.08-0.95-1.62-2.63-1.62-5.04V26c0-2.09-1.69-3.78-3.78-3.78h-6.92c-2.09,0-3.78,1.69-3.78,3.78v50.43
		c0,4.09,1.46,7.65,4.39,10.66c2.93,2.97,6.46,4.5,10.6,4.59h5.43h1.81h37.12c4.18,0,7.73-1.51,10.66-4.52
		c2.97-3.01,4.46-6.63,4.46-10.85v-3.75c0-4.26-1.49-7.88-4.46-10.85c-2.93-2.97-6.48-4.46-10.66-4.46H85.4l35.02-35.02h-16.26
		V22.22z"/>
	<path id="XMLID_2036_" class="st1" d="M3.78,73.59h10.69V26c0-2.09-1.69-3.78-3.78-3.78H0v47.59C0,71.9,1.69,73.59,3.78,73.59z"/>
	<path id="XMLID_2035_" class="st1" d="M307.43,22.22h-6.92c-2.09,0-3.78,1.69-3.78,3.78v65.68h10.69c2.09,0,3.78-1.69,3.78-3.78V26
		C311.21,23.91,309.52,22.22,307.43,22.22z"/>
	<path id="XMLID_2034_" class="st1" d="M229.71,39.42c2.09,0,3.78-1.69,3.78-3.78v-6.92c0-2.09-1.69-3.78-3.78-3.78h-21.39
		c-2.09,0-3.78,1.69-3.78,3.78v10.69L229.71,39.42L229.71,39.42z"/>
	<path id="XMLID_2033_" class="st1" d="M198.38,98.91h-6.92c-2.09,0-3.78,1.69-3.78,3.78v10.69h10.69c2.09,0,3.78-1.69,3.78-3.78
		v-6.92C202.15,100.6,200.46,98.91,198.38,98.91z"/>
	<path id="XMLID_2032_" class="st1" d="M274.58,46.74h-9.24c-4.13,0-7.71,1.51-10.72,4.52c-2.89,3.02-4.33,6.63-4.33,10.85v19.55
		h-6.46h-1.75h-1.55c-2.54,0-4.35-0.45-5.43-1.36c-1.08-0.9-1.62-2.56-1.62-4.97V50.52c0-2.09-1.69-3.78-3.78-3.78h-6.91
		c-2.09,0-3.78,1.69-3.78,3.78v24.81c0,2.41-0.54,4.07-1.62,4.97c-1.12,0.9-2.93,1.36-5.43,1.36h-1.55h-1.23
		c-2.54,0-4.35-0.45-5.43-1.36c-1.08-0.9-1.62-2.56-1.62-4.97V50.52c0-2.09-1.69-3.78-3.78-3.78h-6.92c-2.09,0-3.78,1.69-3.78,3.78
		v24.81c0,2.41-0.54,4.07-1.62,4.97c-1.12,0.9-2.93,1.36-5.43,1.36h-1.81h-1.29c-2.11,0-3.73-0.45-4.84-1.36
		c-1.08-0.95-1.62-2.63-1.62-5.04V26c0-2.09-1.69-3.78-3.78-3.78h-6.92c-2.09,0-3.78,1.69-3.78,3.78v50.43
		c0,4.09,1.46,7.65,4.39,10.66c2.93,2.97,6.46,4.5,10.6,4.59h5.75h1.49h8.33c1.94-0.04,3.75-0.39,5.43-1.03
		c1.68-0.65,3.21-1.66,4.59-3.04c2.84,2.63,6.22,3.98,10.14,4.07h1.29h1.81h8.08c1.94-0.04,3.75-0.39,5.43-1.03
		c1.68-0.65,3.21-1.66,4.59-3.04c2.84,2.63,6.22,3.98,10.14,4.07h3.42h1.75h42.03c2.09,0,3.78-1.69,3.78-3.78v-6.24h-24.87V63.28
		c0-1.68,0.47-3.19,1.42-4.52c0.43-0.6,0.97-1.09,1.62-1.45c0.65-0.37,1.38-0.55,2.2-0.55c1.59,0,2.93,0.71,4.01,2.13
		c0.78,1.25,1.16,2.71,1.16,4.39v3.88h10.69c2.09,0,3.78-1.69,3.78-3.78v-1.26c0-4.22-1.46-7.8-4.39-10.73
		C282.27,48.29,278.71,46.74,274.58,46.74z"/>
</g>
<g id="XMLID_46_">
	<path id="XMLID_47_" class="st2" d="M377.05,0c4.49,0,8.13,3.64,8.13,8.13s-3.64,8.13-8.13,8.13c-13.27,0-24.07,10.8-24.07,24.07
		s10.8,24.07,24.07,24.07c4.49,0,8.13,3.64,8.13,8.13s-3.64,8.13-8.13,8.13c-22.24,0-40.33-18.09-40.33-40.33
		C336.72,18.09,354.81,0,377.05,0"/>
	<path id="XMLID_224_" class="st3" d="M418.3,67.29l-32.18-32.18c-3.18-3.18-8.35-3.18-11.53,0s-3.18,8.35,0,11.53L401,73.05
		l-26.41,26.41c-3.18,3.18-3.18,8.35,0,11.53s8.35,3.18,11.53,0l32.18-32.18C421.48,75.64,421.48,70.47,418.3,67.29z"/>
</g>
</svg>
